<svg xmlns="http://www.w3.org/2000/svg" viewBox="0 0 1920 900" preserveAspectRatio="xMidYMid slice">
<defs>
<linearGradient id="cd" x1="0" y1="0" x2="1920" y2="900" gradientUnits="userSpaceOnUse">
<stop stop-color="#141F66"/><stop offset="1" stop-color="#0A1240"/>
</linearGradient>
</defs>
<rect width="1920" height="900" fill="url(#cd)"/>
<!-- big editor window -->
<rect x="240" y="120" width="1440" height="680" rx="18" fill="#0F1950" stroke="#3D52E0" stroke-width="2"/>
<rect x="240" y="120" width="1440" height="58" rx="18" fill="#253299"/>
<circle cx="286" cy="149" r="9" fill="#F87171"/><circle cx="316" cy="149" r="9" fill="#FBBF54"/><circle cx="346" cy="149" r="9" fill="#3ddc84"/>
<!-- sidebar -->
<rect x="240" y="178" width="220" height="622" fill="#0D1645"/>
<g fill="#3D52E0" opacity="0.8">
<rect x="268" y="210" width="150" height="12" rx="5"/><rect x="286" y="240" width="130" height="12" rx="5"/>
<rect x="286" y="270" width="110" height="12" rx="5"/><rect x="268" y="300" width="150" height="12" rx="5"/>
<rect x="286" y="330" width="120" height="12" rx="5"/><rect x="268" y="360" width="140" height="12" rx="5"/>
</g>
<!-- code lines -->
<g>
<rect x="500" y="216" width="70" height="14" rx="6" fill="#F2994A"/>
<rect x="584" y="216" width="180" height="14" rx="6" fill="#67E8F9"/>
<rect x="778" y="216" width="90" height="14" rx="6" fill="#A8B4F0" opacity="0.6"/>
<rect x="540" y="252" width="120" height="14" rx="6" fill="#3ddc84"/>
<rect x="674" y="252" width="230" height="14" rx="6" fill="#A8B4F0" opacity="0.6"/>
<rect x="540" y="288" width="90" height="14" rx="6" fill="#67E8F9"/>
<rect x="644" y="288" width="150" height="14" rx="6" fill="#F2994A"/>
<rect x="808" y="288" width="200" height="14" rx="6" fill="#A8B4F0" opacity="0.5"/>
<rect x="580" y="324" width="260" height="14" rx="6" fill="#A8B4F0" opacity="0.6"/>
<rect x="580" y="360" width="180" height="14" rx="6" fill="#3ddc84"/>
<rect x="774" y="360" width="110" height="14" rx="6" fill="#67E8F9"/>
<rect x="540" y="396" width="140" height="14" rx="6" fill="#F2994A"/>
<rect x="500" y="432" width="80" height="14" rx="6" fill="#A8B4F0" opacity="0.6"/>
<rect x="500" y="490" width="70" height="14" rx="6" fill="#F2994A"/>
<rect x="584" y="490" width="220" height="14" rx="6" fill="#67E8F9"/>
<rect x="540" y="526" width="160" height="14" rx="6" fill="#3ddc84"/>
<rect x="714" y="526" width="190" height="14" rx="6" fill="#A8B4F0" opacity="0.6"/>
<rect x="540" y="562" width="110" height="14" rx="6" fill="#67E8F9"/>
<rect x="664" y="562" width="240" height="14" rx="6" fill="#A8B4F0" opacity="0.5"/>
<rect x="500" y="598" width="80" height="14" rx="6" fill="#A8B4F0" opacity="0.6"/>
</g>
<!-- mini terminal panel -->
<rect x="1080" y="480" width="560" height="280" rx="12" fill="#0A1240" stroke="#3D52E0" stroke-width="1.5"/>
<rect x="1104" y="512" width="10" height="16" fill="#3ddc84"/>
<rect x="1124" y="514" width="200" height="12" rx="5" fill="#3ddc84" opacity="0.85"/>
<rect x="1104" y="546" width="290" height="12" rx="5" fill="#A8B4F0" opacity="0.55"/>
<rect x="1104" y="576" width="240" height="12" rx="5" fill="#A8B4F0" opacity="0.55"/>
<rect x="1104" y="606" width="180" height="12" rx="5" fill="#F2994A" opacity="0.9"/>
<rect x="1104" y="636" width="310" height="12" rx="5" fill="#A8B4F0" opacity="0.55"/>
<rect x="1104" y="666" width="120" height="12" rx="5" fill="#3ddc84" opacity="0.85"/>
<!-- floating brackets deco -->
<text x="120" y="330" font-family="monospace" font-size="130" fill="#3D52E0" opacity="0.35">{ }</text>
<text x="1710" y="260" font-family="monospace" font-size="100" fill="#3D52E0" opacity="0.3">&lt;/&gt;</text>
<rect width="1920" height="900" fill="black" opacity="0.2"/>
</svg>
