<svg xmlns="http://www.w3.org/2000/svg" viewBox="0 0 1920 900" preserveAspectRatio="xMidYMid slice">
<defs>
<linearGradient id="of" x1="0" y1="0" x2="0" y2="900" gradientUnits="userSpaceOnUse">
<stop stop-color="#3245C0"/><stop offset="1" stop-color="#12205E"/>
</linearGradient>
</defs>
<rect width="1920" height="900" fill="url(#of)"/>
<!-- big wall screen -->
<rect x="560" y="90" width="800" height="420" rx="16" fill="#0A1240" stroke="#3D52E0" stroke-width="3"/>
<rect x="600" y="130" width="330" height="160" rx="10" fill="#253299"/>
<g>
<rect x="624" y="230" width="34" height="44" rx="5" fill="#3D52E0"/>
<rect x="668" y="205" width="34" height="69" rx="5" fill="#F2994A"/>
<rect x="712" y="180" width="34" height="94" rx="5" fill="#3D52E0"/>
<rect x="756" y="158" width="34" height="116" rx="5" fill="#F2994A"/>
<rect x="800" y="188" width="34" height="86" rx="5" fill="#67E8F9"/>
</g>
<circle cx="1130" cy="210" r="80" fill="#253299"/>
<path d="M1130 210 L1130 130 A80 80 0 0 1 1203 246 Z" fill="#F2994A"/>
<path d="M1130 210 L1203 246 A80 80 0 0 1 1058 274 Z" fill="#67E8F9"/>
<g>
<rect x="600" y="320" width="740" height="14" rx="6" fill="#3D52E0" opacity="0.8"/>
<rect x="600" y="350" width="560" height="14" rx="6" fill="#3D52E0" opacity="0.55"/>
<rect x="600" y="380" width="640" height="14" rx="6" fill="#3D52E0" opacity="0.65"/>
<rect x="600" y="410" width="480" height="14" rx="6" fill="#F2994A" opacity="0.8"/>
<rect x="600" y="440" width="600" height="14" rx="6" fill="#3D52E0" opacity="0.5"/>
</g>
<!-- desks -->
<rect x="140" y="640" width="1640" height="26" rx="10" fill="#141F66"/>
<rect x="200" y="666" width="26" height="180" fill="#0B1340"/><rect x="1694" y="666" width="26" height="180" fill="#0B1340"/>
<!-- monitors on desk -->
<g>
<rect x="300" y="540" width="180" height="104" rx="8" fill="#0A1240" stroke="#3D52E0" stroke-width="2"/>
<rect x="320" y="560" width="90" height="10" rx="4" fill="#3ddc84"/><rect x="320" y="580" width="130" height="10" rx="4" fill="#3D52E0"/>
<rect x="380" y="644" width="20" height="18" fill="#0B1340"/>
<rect x="760" y="540" width="180" height="104" rx="8" fill="#0A1240" stroke="#3D52E0" stroke-width="2"/>
<rect x="780" y="560" width="120" height="10" rx="4" fill="#F2994A"/><rect x="780" y="580" width="90" height="10" rx="4" fill="#3D52E0"/>
<rect x="840" y="644" width="20" height="18" fill="#0B1340"/>
<rect x="1220" y="540" width="180" height="104" rx="8" fill="#0A1240" stroke="#3D52E0" stroke-width="2"/>
<rect x="1240" y="560" width="100" height="10" rx="4" fill="#67E8F9"/><rect x="1240" y="580" width="130" height="10" rx="4" fill="#3D52E0"/>
<rect x="1300" y="644" width="20" height="18" fill="#0B1340"/>
</g>
<!-- people silhouettes -->
<g fill="#080E33">
<circle cx="390" cy="700" r="38"/><path d="M330 850c0-52 26-84 60-84s60 32 60 84"/>
<circle cx="850" cy="700" r="38"/><path d="M790 850c0-52 26-84 60-84s60 32 60 84"/>
<circle cx="1310" cy="700" r="38"/><path d="M1250 850c0-52 26-84 60-84s60 32 60 84"/>
</g>
<!-- ceiling lights -->
<g fill="#67E8F9" opacity="0.25">
<ellipse cx="480" cy="40" rx="160" ry="24"/><ellipse cx="960" cy="40" rx="160" ry="24"/><ellipse cx="1440" cy="40" rx="160" ry="24"/>
</g>
<rect width="1920" height="900" fill="black" opacity="0.22"/>
</svg>
