<svg xmlns="http://www.w3.org/2000/svg" viewBox="0 0 640 480" fill="none">
<defs>
<linearGradient id="bg" x1="0" y1="0" x2="640" y2="480" gradientUnits="userSpaceOnUse">
<stop stop-color="#111A3B"/><stop offset="1" stop-color="#0A1128"/>
</linearGradient>
<linearGradient id="acc1" x1="0" y1="0" x2="1" y2="1">
<stop stop-color="#67E8F9"/><stop offset="1" stop-color="#4F46E5"/>
</linearGradient>
<linearGradient id="acc2" x1="0" y1="0" x2="1" y2="1">
<stop stop-color="#3B82F6"/><stop offset="1" stop-color="#818CF8"/>
</linearGradient>
</defs>
<rect width="640" height="480" rx="28" fill="url(#bg)"/>
<circle cx="320" cy="240" r="170" stroke="#2A3768" stroke-width="1.5" fill="none"/>
<circle cx="320" cy="240" r="120" stroke="#2A3768" stroke-width="1" fill="none"/>
<!-- central hub -->
<circle cx="320" cy="240" r="46" fill="url(#acc1)"/>
<path d="M320 218 L327 234 L344 234 L330 244 L336 260 L320 250 L304 260 L310 244 L296 234 L313 234 Z" fill="#0A1128"/>
<!-- module nodes -->
<g>
<circle cx="150" cy="130" r="34" fill="#111A3B" stroke="#3B82F6" stroke-width="2"/>
<rect x="136" y="118" width="28" height="22" rx="3" fill="#3B82F6"/>
<line x1="178" y1="150" x2="284" y2="212" stroke="#3B82F6" stroke-width="1.5" opacity="0.5"/>
</g>
<g>
<circle cx="500" cy="120" r="34" fill="#111A3B" stroke="#34D399" stroke-width="2"/>
<path d="M488 112 l12 -10 12 10 v20 h-24z" fill="#34D399"/>
<line x1="472" y1="140" x2="356" y2="212" stroke="#34D399" stroke-width="1.5" opacity="0.5"/>
</g>
<g>
<circle cx="120" cy="330" r="34" fill="#111A3B" stroke="#F5A623" stroke-width="2"/>
<rect x="106" y="318" width="28" height="22" rx="2" fill="#F5A623"/>
<line x1="148" y1="318" x2="284" y2="262" stroke="#F5A623" stroke-width="1.5" opacity="0.5"/>
</g>
<g>
<circle cx="500" cy="350" r="34" fill="#111A3B" stroke="#A78BFA" stroke-width="2"/>
<circle cx="500" cy="342" r="8" fill="#A78BFA"/>
<path d="M486 364c0-9 7-16 14-16s14 7 14 16" fill="#A78BFA"/>
<line x1="472" y1="335" x2="356" y2="266" stroke="#A78BFA" stroke-width="1.5" opacity="0.5"/>
</g>
<g>
<circle cx="320" cy="410" r="30" fill="#111A3B" stroke="#F472B6" stroke-width="2"/>
<rect x="306" y="400" width="28" height="18" rx="3" fill="#F472B6"/>
<circle cx="313" cy="405" r="2.4" fill="#111A3B"/>
<circle cx="327" cy="405" r="2.4" fill="#111A3B"/>
<line x1="320" y1="380" x2="320" y2="286" stroke="#F472B6" stroke-width="1.5" opacity="0.5"/>
</g>
</svg>
