<svg xmlns="http://www.w3.org/2000/svg" viewBox="0 0 1400 560" fill="none">
<defs>
<linearGradient id="skyGrad" x1="0" y1="0" x2="0" y2="560" gradientUnits="userSpaceOnUse">
<stop stop-color="#3D52E0"/><stop offset="1" stop-color="#1F2C9C"/>
</linearGradient>
<linearGradient id="sunGrad" x1="0" y1="0" x2="1" y2="1">
<stop stop-color="#FBBF54"/><stop offset="1" stop-color="#F2994A"/>
</linearGradient>
</defs>
<rect width="1400" height="560" fill="url(#skyGrad)"/>
<circle cx="1180" cy="150" r="120" fill="url(#sunGrad)" opacity="0.9"/>
<!-- concentric orbit rings -->
<circle cx="700" cy="300" r="230" stroke="#ffffff" stroke-opacity="0.12" fill="none"/>
<circle cx="700" cy="300" r="160" stroke="#ffffff" stroke-opacity="0.18" fill="none"/>
<!-- central platform hub -->
<rect x="620" y="250" width="160" height="100" rx="10" fill="#ffffff" opacity="0.95"/>
<rect x="640" y="270" width="46" height="30" rx="4" fill="#3D52E0"/>
<rect x="694" y="270" width="46" height="30" rx="4" fill="#F2994A"/>
<rect x="640" y="308" width="100" height="10" rx="3" fill="#3D52E0" opacity="0.4"/>
<!-- floating module nodes -->
<g>
<rect x="330" y="150" width="90" height="66" rx="10" fill="#ffffff"/>
<rect x="346" y="166" width="58" height="10" rx="3" fill="#3D52E0"/>
<rect x="346" y="184" width="40" height="8" rx="3" fill="#F2994A"/>
<line x1="420" y1="200" x2="620" y2="290" stroke="#ffffff" stroke-opacity="0.4" stroke-width="2"/>
</g>
<g>
<rect x="960" y="180" width="90" height="66" rx="10" fill="#ffffff"/>
<circle cx="985" cy="205" r="10" fill="#F2994A"/>
<rect x="1002" y="200" width="36" height="8" rx="3" fill="#3D52E0"/>
<rect x="1002" y="216" width="30" height="7" rx="3" fill="#3D52E0" opacity="0.5"/>
<line x1="980" y1="240" x2="780" y2="290" stroke="#ffffff" stroke-opacity="0.4" stroke-width="2"/>
</g>
<g>
<rect x="300" y="360" width="90" height="66" rx="10" fill="#ffffff"/>
<path d="M320 400l14-16 10 10 20-22" stroke="#3D52E0" stroke-width="4" fill="none" stroke-linecap="round" stroke-linejoin="round"/>
<line x1="390" y1="385" x2="630" y2="330" stroke="#ffffff" stroke-opacity="0.4" stroke-width="2"/>
</g>
<g>
<rect x="980" y="380" width="90" height="66" rx="10" fill="#ffffff"/>
<circle cx="1010" cy="405" r="9" fill="#3D52E0"/>
<path d="M995 430c0-9 7-15 15-15s15 6 15 15" fill="#3D52E0"/>
<line x1="985" y1="400" x2="775" y2="335" stroke="#ffffff" stroke-opacity="0.4" stroke-width="2"/>
</g>
<g>
<rect x="650" y="440" width="90" height="66" rx="10" fill="#ffffff"/>
<rect x="668" y="458" width="54" height="10" rx="3" fill="#F2994A"/>
<rect x="668" y="476" width="34" height="8" rx="3" fill="#3D52E0" opacity="0.5"/>
<line x1="695" y1="440" x2="695" y2="350" stroke="#ffffff" stroke-opacity="0.4" stroke-width="2"/>
</g>
<!-- decorative waves at bottom -->
<path d="M0 520 Q 350 480 700 520 T 1400 520 V560 H0 Z" fill="#ffffff" opacity="0.06"/>
</svg>
