<svg xmlns="http://www.w3.org/2000/svg" viewBox="0 0 1920 1080" preserveAspectRatio="xMidYMid slice">
<defs>
<linearGradient id="a3" x1="0" y1="1080" x2="1920" y2="0" gradientUnits="userSpaceOnUse">
<stop stop-color="#101A55"/><stop offset="1" stop-color="#4A5EE8"/>
</linearGradient>
</defs>
<rect width="1920" height="1080" fill="url(#a3)"/>
<rect x="1120" y="220" width="660" height="480" rx="24" fill="#ffffff" opacity="0.97"/>
<rect x="1120" y="220" width="660" height="84" rx="24" fill="#3D52E0"/>
<rect x="1150" y="250" width="200" height="22" rx="8" fill="#ffffff" opacity="0.7"/>
<g>
<rect x="1170" y="500" width="58" height="160" rx="8" fill="#3D52E0"/>
<rect x="1250" y="440" width="58" height="220" rx="8" fill="#F2994A"/>
<rect x="1330" y="390" width="58" height="270" rx="8" fill="#3D52E0"/>
<rect x="1410" y="340" width="58" height="320" rx="8" fill="#F2994A"/>
</g>
<circle cx="1640" cy="470" r="105" fill="#E9F4F4"/>
<path d="M1640 470 L1640 365 A105 105 0 0 1 1736 517 Z" fill="#F2994A"/>
<path d="M1640 470 L1736 517 A105 105 0 0 1 1545 552 Z" fill="#3D52E0"/>
<g>
<circle cx="430" cy="430" r="72" fill="#F2994A"/>
<path d="M310 660c0-76 54-126 120-126s120 50 120 126" fill="#F2994A" opacity="0.92"/>
<circle cx="670" cy="470" r="56" fill="#ffffff"/>
<path d="M580 640c0-58 41-96 90-96s90 38 90 96" fill="#ffffff" opacity="0.92"/>
<circle cx="230" cy="480" r="50" fill="#FBBF54"/>
<path d="M150 640c0-54 38-90 84-90s84 36 84 90" fill="#FBBF54" opacity="0.92"/>
</g>
<line x1="760" y1="500" x2="1120" y2="430" stroke="#67E8F9" stroke-opacity="0.5" stroke-width="3"/>
<circle cx="760" cy="500" r="10" fill="#67E8F9"/><circle cx="1120" cy="430" r="10" fill="#67E8F9"/>
<rect width="1920" height="1080" fill="url(#fade3)"/>
<defs><linearGradient id="fade3" x1="0" y1="0" x2="0" y2="1080" gradientUnits="userSpaceOnUse">
<stop offset="0.4" stop-color="#000" stop-opacity="0"/><stop offset="1" stop-color="#091038" stop-opacity="0.72"/>
</linearGradient></defs>
</svg>
