<svg xmlns="http://www.w3.org/2000/svg" viewBox="0 0 1920 1080" preserveAspectRatio="xMidYMid slice">
<defs>
<linearGradient id="a1" x1="0" y1="0" x2="0" y2="1080" gradientUnits="userSpaceOnUse">
<stop stop-color="#3547C8"/><stop offset="0.55" stop-color="#2E3FC4"/><stop offset="1" stop-color="#101A55"/>
</linearGradient>
<radialGradient id="glow1" cx="0.78" cy="0.22" r="0.5">
<stop stop-color="#F2994A" stop-opacity="0.9"/><stop offset="1" stop-color="#F2994A" stop-opacity="0"/>
</radialGradient>
</defs>
<rect width="1920" height="1080" fill="url(#a1)"/>
<rect width="1920" height="1080" fill="url(#glow1)"/>
<circle cx="1500" cy="240" r="130" fill="#FBBF54"/>
<!-- distant skyline -->
<g fill="#152268" opacity="0.9">
<rect x="0" y="760" width="150" height="320"/><rect x="170" y="690" width="110" height="390"/>
<rect x="300" y="740" width="160" height="340"/><rect x="480" y="640" width="120" height="440"/>
<rect x="620" y="720" width="170" height="360"/><rect x="810" y="670" width="110" height="410"/>
<rect x="940" y="750" width="150" height="330"/><rect x="1110" y="650" width="130" height="430"/>
<rect x="1260" y="730" width="160" height="350"/><rect x="1440" y="690" width="120" height="390"/>
<rect x="1580" y="750" width="150" height="330"/><rect x="1750" y="670" width="120" height="410"/>
<rect x="1880" y="740" width="40" height="340"/>
</g>
<!-- foreground skyline darker -->
<g fill="#0A1038">
<rect x="0" y="900" width="260" height="180"/><rect x="290" y="850" width="200" height="230"/>
<rect x="520" y="910" width="240" height="170"/><rect x="790" y="860" width="180" height="220"/>
<rect x="1000" y="905" width="230" height="175"/><rect x="1260" y="855" width="200" height="225"/>
<rect x="1490" y="900" width="230" height="180"/><rect x="1750" y="860" width="170" height="220"/>
</g>
<!-- windows -->
<g fill="#F2994A" opacity="0.85">
<rect x="200" y="715" width="14" height="14"/><rect x="228" y="715" width="14" height="14"/>
<rect x="200" y="745" width="14" height="14"/><rect x="505" y="665" width="14" height="14"/>
<rect x="533" y="665" width="14" height="14"/><rect x="505" y="695" width="14" height="14"/>
<rect x="1135" y="675" width="14" height="14"/><rect x="1163" y="675" width="14" height="14"/>
<rect x="1135" y="705" width="14" height="14"/><rect x="1465" y="715" width="14" height="14"/>
<rect x="1775" y="695" width="14" height="14"/><rect x="1803" y="695" width="14" height="14"/>
</g>
<!-- network mesh sky -->
<g stroke="#67E8F9" stroke-opacity="0.45" stroke-width="2.5" fill="none">
<line x1="280" y1="420" x2="640" y2="330"/><line x1="640" y1="330" x2="1000" y2="430"/>
<line x1="1000" y1="430" x2="1340" y2="340"/><line x1="640" y1="330" x2="1000" y2="210"/>
<line x1="1000" y1="210" x2="1340" y2="340"/><line x1="280" y1="420" x2="1000" y2="210"/>
</g>
<g fill="#9FF3FF">
<circle cx="280" cy="420" r="10"/><circle cx="640" cy="330" r="14"/><circle cx="1000" cy="430" r="10"/>
<circle cx="1340" cy="340" r="14"/><circle cx="1000" cy="210" r="10"/>
</g>
<!-- bottom dark gradient for text legibility -->
<rect width="1920" height="1080" fill="url(#fade1)"/>
<defs><linearGradient id="fade1" x1="0" y1="0" x2="0" y2="1080" gradientUnits="userSpaceOnUse">
<stop offset="0.4" stop-color="#000" stop-opacity="0"/><stop offset="1" stop-color="#080E33" stop-opacity="0.75"/>
</linearGradient></defs>
</svg>
