<svg xmlns="http://www.w3.org/2000/svg" viewBox="0 0 1920 1080" preserveAspectRatio="xMidYMid slice">
<defs>
<linearGradient id="a2" x1="0" y1="0" x2="1920" y2="1080" gradientUnits="userSpaceOnUse">
<stop stop-color="#2E3FC4"/><stop offset="1" stop-color="#6478F5"/>
</linearGradient>
</defs>
<rect width="1920" height="1080" fill="url(#a2)"/>
<g stroke="#ffffff" stroke-opacity="0.16" stroke-width="9" fill="none">
<path d="M-60 300 C 420 220 760 560 1160 440 S 1840 280 1990 380"/>
<path d="M-60 700 C 520 780 940 580 1440 720 S 1940 860 1990 780"/>
<path d="M430 -60 C 410 400 560 700 500 1140"/>
<path d="M1230 -60 C 1270 360 1120 720 1200 1140"/>
<path d="M830 -60 C 850 420 780 660 830 1140"/>
</g>
<g fill="#ffffff" fill-opacity="0.07">
<rect x="160" y="360" width="240" height="160" rx="10"/>
<rect x="580" y="160" width="210" height="180" rx="10"/>
<rect x="940" y="580" width="260" height="170" rx="10"/>
<rect x="1400" y="330" width="230" height="190" rx="10"/>
<rect x="1580" y="700" width="250" height="160" rx="10"/>
</g>
<path d="M700 420c-34 0-62 27-62 62 0 46 62 112 62 112s62-66 62-112c0-35-28-62-62-62z" fill="#F2994A"/>
<circle cx="700" cy="482" r="22" fill="#1F2C9C"/>
<path d="M1280 520c-27 0-48 21-48 48 0 36 48 88 48 88s48-52 48-88c0-27-21-48-48-48z" fill="#FBBF54"/>
<circle cx="1280" cy="568" r="16" fill="#1F2C9C"/>
<path d="M1650 250c-21 0-40 17-40 40 0 29 40 73 40 73s40-44 40-73c0-23-19-40-40-40z" fill="#ffffff"/>
<circle cx="1650" cy="290" r="13" fill="#3D52E0"/>
<circle cx="700" cy="600" r="80" stroke="#F2994A" stroke-opacity="0.45" stroke-width="4" fill="none"/>
<circle cx="700" cy="600" r="120" stroke="#F2994A" stroke-opacity="0.22" stroke-width="3" fill="none"/>
<rect width="1920" height="1080" fill="url(#fade2)"/>
<defs><linearGradient id="fade2" x1="0" y1="0" x2="0" y2="1080" gradientUnits="userSpaceOnUse">
<stop offset="0.4" stop-color="#000" stop-opacity="0"/><stop offset="1" stop-color="#0C1547" stop-opacity="0.7"/>
</linearGradient></defs>
</svg>
